<?xml version="1.0" standalone="no"?>
<!DOCTYPE svg PUBLIC "-//W3C//DTD SVG 20010904//EN"
 "http://www.w3.org/TR/2001/REC-SVG-20010904/DTD/svg10.dtd">
<svg version="1.0" xmlns="http://www.w3.org/2000/svg"
 width="1024.000000pt" height="1024.000000pt" viewBox="0 0 1024.000000 1024.000000"
 preserveAspectRatio="xMidYMid meet">

<g transform="translate(0.000000,1024.000000) scale(0.100000,-0.100000)"
fill="#000000" stroke="none">
<path d="M4965 8040 c-569 -44 -1096 -235 -1520 -549 -175 -131 -364 -311
-508 -486 -603 -733 -785 -1746 -482 -2684 128 -395 324 -731 608 -1041 346
-378 821 -678 1294 -819 435 -129 866 -154 1313 -76 438 77 894 280 1260 561
131 101 383 348 484 474 268 336 468 751 556 1155 49 224 61 327 67 575 8 367
-31 636 -142 969 -60 181 -184 443 -280 596 -372 592 -934 1015 -1607 1210
-326 95 -730 139 -1043 115z m53 -367 c4 -10 5 -133 2 -273 -4 -140 -4 -399
-2 -575 l5 -321 -189 1 c-104 0 -320 -2 -481 -5 -160 -3 -294 -2 -297 1 -14
14 148 397 229 539 162 287 416 534 650 632 52 22 72 22 83 1z m450 -37 c126
-65 316 -229 434 -375 224 -278 423 -707 453 -977 l7 -61 51 -25 c55 -28 155
-97 250 -173 l57 -47 0 39 c0 33 -15 115 -34 193 -7 25 -3 26 186 90 122 41
251 93 350 142 l157 76 14 -22 c33 -49 127 -248 170 -356 47 -120 96 -284 122
-408 17 -82 45 -299 45 -349 l0 -33 -195 0 -194 0 0 -140 c0 -78 -3 -145 -6
-150 -4 -6 70 -10 193 -10 l200 0 -4 -37 c-35 -349 -94 -587 -209 -843 -55
-124 -145 -290 -157 -290 -4 0 -30 13 -56 30 -130 80 -336 160 -537 210 -49
12 -91 23 -93 25 -2 1 9 69 23 150 14 80 25 155 23 165 -2 15 -34 -4 -168
-101 -91 -66 -185 -133 -210 -147 l-45 -27 -468 -5 -469 -5 -82 -204 c-92
-228 -124 -277 -201 -306 -40 -16 -45 -21 -50 -59 -4 -22 -5 -231 -3 -464 l3
-422 -27 0 c-88 0 -261 112 -418 269 -161 162 -267 318 -377 556 -54 117 -127
330 -119 350 4 11 15 13 49 9 25 -4 52 -2 62 3 18 11 91 230 80 242 -4 3 -55
6 -114 6 -103 0 -110 1 -181 37 -50 25 -119 75 -209 153 -74 63 -138 115 -143
115 -8 0 -8 0 22 -160 29 -155 36 -141 -83 -173 -110 -30 -405 -146 -517 -202
-52 -26 -70 -31 -78 -22 -51 64 -182 356 -240 538 -58 180 -111 459 -112 582
l0 37 188 0 187 0 -1 148 0 147 -187 3 -187 2 0 35 c0 55 29 261 51 364 27
125 71 272 116 385 34 87 156 343 172 359 4 4 66 -20 137 -54 114 -54 350
-139 515 -184 l55 -15 -21 -98 c-12 -53 -24 -120 -27 -148 l-5 -50 126 84 c69
46 153 98 186 115 58 30 64 31 215 34 531 9 925 24 936 36 6 6 25 58 43 115
38 118 69 165 144 221 l54 39 7 221 c7 208 2 605 -10 773 -5 68 -3 77 13 80
28 6 90 -10 141 -36z m-1175 -103 c-76 -86 -187 -236 -258 -349 -67 -107 -170
-347 -220 -514 -21 -69 -41 -129 -46 -134 -12 -13 -188 35 -324 89 -125 48
-295 131 -295 143 0 16 114 148 209 242 208 207 463 383 721 496 98 43 263
104 269 99 2 -2 -24 -35 -56 -72z m1880 11 c292 -117 565 -293 804 -517 78
-74 223 -237 223 -251 0 -4 -17 -14 -37 -23 -21 -8 -110 -48 -198 -88 -156
-71 -327 -135 -358 -135 -10 0 -22 23 -36 73 -104 354 -213 557 -474 887 -100
127 -103 125 76 54z m73 -3651 c9 -3 12 -14 8 -32 -19 -75 -69 -213 -119 -324
-96 -212 -198 -361 -365 -528 -122 -123 -226 -203 -334 -259 -85 -44 -112 -49
-119 -22 -4 14 -3 963 2 1131 l1 54 456 -7 c251 -4 463 -10 470 -13z m-2421
-225 c39 -111 91 -245 116 -297 75 -157 223 -386 337 -520 53 -62 53 -62 -98
1 -213 89 -449 235 -635 391 -103 87 -375 361 -375 378 0 22 517 247 570 248
11 1 35 -58 85 -201z m2914 145 c168 -48 355 -126 411 -171 l24 -20 -29 -38
c-49 -65 -245 -262 -336 -339 -188 -157 -435 -308 -647 -396 -68 -28 -126 -48
-129 -45 -3 3 17 31 44 63 191 225 358 524 465 834 l51 148 31 -6 c17 -3 69
-17 115 -30z"/>
<path d="M5678 6501 c-25 -16 -57 -44 -70 -62 -14 -19 -63 -131 -108 -249
-147 -381 -434 -1054 -778 -1825 -175 -393 -175 -392 -168 -429 11 -59 78
-106 151 -106 80 0 131 41 183 146 160 320 590 1273 814 1804 82 195 171 402
196 460 72 164 63 219 -43 270 -61 29 -121 26 -177 -9z"/>
<path d="M4200 5932 c-39 -20 -149 -100 -425 -310 -424 -324 -431 -332 -426
-450 1 -35 107 -140 246 -246 67 -50 214 -167 328 -261 114 -93 224 -179 244
-189 44 -24 110 -25 144 -2 14 9 38 38 53 65 31 59 34 122 7 167 -10 17 -108
102 -217 190 -108 87 -234 188 -278 224 -47 38 -82 75 -84 87 -3 17 50 61 285
237 317 239 329 251 317 336 -9 69 -38 127 -76 150 -41 25 -73 25 -118 2z"/>
<path d="M6044 5931 c-39 -24 -84 -111 -84 -164 0 -58 26 -101 88 -148 158
-118 479 -369 496 -388 16 -18 17 -23 5 -37 -8 -10 -133 -113 -279 -230 -146
-117 -276 -224 -290 -239 -65 -70 5 -248 107 -270 53 -11 105 22 328 205 116
94 278 224 362 287 160 120 209 167 219 209 10 37 -1 99 -22 128 -40 54 -735
617 -799 647 -51 24 -92 24 -131 0z"/>
</g>
</svg>
